HIERARCHY
ROOT Hips
{
	OFFSET 0.00000 0.00000 0.00000
	CHANNELS 6 Xposition Yposition Zposition Yrotation Zrotation Xrotation 
	JOINT Lumbar
	{
		OFFSET 0 0 0
		CHANNELS 3 Zrotation Xrotation Yrotation
		JOINT Neck
		{
			OFFSET 0.00 0.2701 0.00
			CHANNELS 3 Zrotation Xrotation Yrotation
			End Site
			{
				OFFSET 0.00 0.1379 0.00
			}
		}
		JOINT RightShoulder
		{
			OFFSET 0.0119 0.2289 0.1181
			CHANNELS 3 Zrotation Xrotation Yrotation
			JOINT RightElbow
			{
				OFFSET 0.00 -0.1475 0.00
				CHANNELS 2 Zrotation Yrotation
				JOINT RightWrist
				{
					OFFSET 0.00 -0.1605 0.00
					CHANNELS 2 Zrotation Xrotation
					End Site
					{
						OFFSET 0.0040 -0.1068 0.0006
					}
				}
			}
		}
		JOINT LeftShoulder
		{
			OFFSET 0.0119 0.2289 -0.1181
			CHANNELS 3 Zrotation Xrotation Yrotation
			JOINT LeftElbow
			{
				OFFSET 0.00 -0.1475 0.00
				CHANNELS 2 Zrotation Yrotation
				JOINT LeftWrist
				{
					OFFSET 0.00 -0.1605 0.00
					CHANNELS 2 Zrotation Xrotation
					End Site
					{
						OFFSET 0.0040 -0.1068 -0.0006
					}
				}
			}
		}
	}
	JOINT RightHip
	{
		OFFSET 0.0316 -0.0424 0.0458
		CHANNELS 3 Zrotation Xrotation Yrotation
		JOINT RightKnee
		{
			OFFSET 0.00 -0.2438 0.00
			CHANNELS 1 Zrotation
			JOINT RightAnkle
			{
				OFFSET 0.00 -0.2449 0.00
				CHANNELS 3 Zrotation Xrotation Yrotation
				End Site
				{
					OFFSET 0.1237 -0.0542 0.0051
				}
			}
		}
	}
	JOINT LeftHip
	{
		OFFSET 0.0316 -0.0424 -0.0458
		CHANNELS 3 Zrotation Xrotation Yrotation
		JOINT LeftKnee
		{
			OFFSET 0.00 -0.2438 0.00
			CHANNELS 1 Zrotation
			JOINT LeftAnkle
			{
				OFFSET 0.00 -0.2449 0.00
				CHANNELS 3 Zrotation Xrotation Yrotation
				End Site
				{
					OFFSET 0.1237 -0.0542 -0.0051
				}
			}
		}
	}
}
MOTION
Frames: 22
Frame Time: 0.02
-0 -6e-05 -7e-05 29.92318 -19.93143 -3.28289 45.97866 -0.96872 -8.01742 -9.18406 3.00226 -0.09235 -21.09167 -6.07215 -2.63868 26.63423 97.96157 9.47165 1.09197 -22.24887 7.12516 -2.78434 30.28347 -107.02725 16.48623 -1.31699 31.74029 0.86462 5.08678 -20.01198 -7.19204 -5.28165 -3.49903 35.79549 2.3415 4.48115 -24.14387 -6.72137 2.28 1.84401
0.00037 -1e-05 -0.00015 29.88859 -19.91463 -3.27282 46.00755 -0.98626 -7.97136 -9.23556 2.99025 -0.09302 -21.19046 -6.10596 -2.49682 26.87297 97.93283 9.46029 1.09071 -22.27215 7.09272 -2.58487 30.43566 -106.94818 16.39248 -1.30886 31.68196 0.6882 4.03488 -20.00519 -7.11603 -5.17274 -3.43173 35.74216 2.33439 4.40673 -24.14185 -6.72672 2.29754 1.85109
0.00073 4e-05 -0.00022 29.85411 -19.89777 -3.26281 46.03635 -1.00377 -7.92541 -9.28718 2.97829 -0.0937 -21.28906 -6.13887 -2.35822 27.1112 97.91298 9.4513 1.09084 -22.29553 7.06039 -2.3859 30.58749 -106.86938 16.29909 -1.30078 31.62365 0.51237 2.98627 -19.99842 -7.04026 -5.06417 -3.36465 35.68883 2.32723 4.33211 -24.13984 -6.73204 2.31508 1.85818
0.0011 8e-05 -0.00029 29.81963 -19.88102 -3.25278 46.06514 -1.02126 -7.8795 -9.33852 2.96632 -0.09437 -21.38755 -6.17239 -2.21748 27.34924 97.88638 9.44051 1.08992 -22.31876 7.02805 -2.18703 30.73924 -106.79054 16.20563 -1.29268 31.56549 0.33651 1.93762 -19.99165 -6.96449 -4.9556 -3.29756 35.63566 2.32013 4.25782 -24.13783 -6.73738 2.33257 1.86524
0.00146 0.00013 -0.00037 29.78505 -19.86433 -3.24269 46.09403 -1.03876 -7.83347 -9.38978 2.9543 -0.09504 -21.48621 -6.20729 -2.07179 27.58769 97.84588 9.42604 1.08681 -22.34183 6.99561 -1.9877 30.89126 -106.71148 16.11181 -1.28455 31.50734 0.16003 0.88564 -19.98487 -6.88848 -4.84669 -3.23025 35.5825 2.3131 4.184 -24.13582 -6.74273 2.35003 1.87228
0.00183 0.00018 -0.00044 29.75074 -19.84711 -3.23282 46.12264 -1.05631 -7.7877 -9.44221 2.94247 -0.09572 -21.58469 -6.23612 -1.9477 27.82541 97.8684 9.4283 1.09358 -22.36585 6.96351 -1.78949 31.04269 -106.63324 16.01935 -1.27656 31.44868 -0.01442 -0.15582 -19.97811 -6.8132 -4.73884 -3.16363 35.52882 2.30569 4.10774 -24.13383 -6.748 2.36774 1.87948
0.00219 0.00023 -0.00052 29.71594 -19.83106 -3.22254 46.15174 -1.07373 -7.74148 -9.49189 2.93027 -0.09639 -21.68336 -6.27663 -1.78201 28.0644 97.7688 9.39808 1.08123 -22.38792 6.93076 -1.58929 31.19522 -106.55331 15.92416 -1.26829 31.39121 -0.19274 -1.21721 -19.97132 -6.73655 -4.62899 -3.09572 35.47636 2.29902 4.03625 -24.13178 -6.75344 2.38494 1.88635
0.00255 0.00028 -0.00059 29.68158 -19.81376 -3.21262 46.1805 -1.09129 -7.69565 -9.54471 2.91839 -0.09707 -21.78198 -6.30728 -1.65154 28.30212 97.77321 9.39567 1.08511 -22.41182 6.89859 -1.39083 31.34658 -106.47517 15.83167 -1.26027 31.33243 -0.36753 -2.26037 -19.96456 -6.66115 -4.52097 -3.02898 35.42254 2.29173 3.96076 -24.12979 -6.75872 2.40258 1.8935
0.00292 0.00033 -0.00067 29.64781 -19.79557 -3.20319 46.2084 -1.10893 -7.65035 -9.59904 2.90702 -0.09775 -21.88009 -6.32216 -1.57708 28.53882 97.94048 9.43617 1.11464 -22.43787 6.86718 -1.19476 31.49724 -106.39828 15.74172 -1.25258 31.27285 -0.53792 -3.28109 -19.95779 -6.58731 -4.41519 -2.96368 35.36793 2.28339 3.8787 -24.12787 -6.76384 2.4209 1.9011
0.00328 0.00037 -0.00074 29.61079 -19.78444 -3.1911 46.2399 -1.12584 -7.60218 -9.63768 2.89307 -0.09839 -21.97977 -6.41658 -1.21937 28.78297 97.27826 9.25663 1.01407 -22.4513 6.83157 -0.98573 31.65412 -106.31136 15.63485 -1.24308 31.22028 -0.73336 -4.43049 -19.95093 -6.50458 -4.29651 -2.89013 35.32048 2.28022 3.82937 -24.12552 -6.76997 2.43575 1.90642
0.00366 0.00042 -0.00082 29.58053 -19.75721 -3.1845 46.26468 -1.14448 -7.55997 -9.71389 2.88431 -0.09914 -22.07702 -6.3504 -1.43401 29.01037 98.29645 9.52391 1.1767 -22.49148 6.80472 -0.80355 31.79643 -106.24744 15.56517 -1.23733 31.15139 -0.87613 -5.3086 -19.94439 -6.44056 -4.20507 -2.83399 35.2563 2.26673 3.71427 -24.12412 -6.7739 2.45764 1.91637
0.00406 0.00048 -0.00091 29.5699 -19.69612 -3.19438 46.26291 -1.16612 -7.53521 -9.85563 2.89215 -0.10016 -22.15981 -5.77814 -3.44904 29.20029 104.55803 11.17566 2.16393 -22.60472 6.80325 -0.69971 31.91156 -106.231 15.58517 -1.24265 31.05079 -0.87161 -5.43419 -19.9377 -6.4288 -4.18887 -2.82605 35.16017 2.2197 3.38894 -24.12499 -6.77222 2.50122 1.94073
0.00447 0.00054 -0.00102 29.56591 -19.61759 -3.20959 46.25542 -1.1897 -7.51633 -10.04067 2.90488 -0.10135 -22.24125 -5.05556 -6.00037 29.37213 112.39795 13.2484 3.39788 -22.74489 6.81043 -0.62195 32.01056 -106.23976 15.64397 -1.25161 30.93215 -0.81479 -5.28932 -19.93152 -6.43565 -4.19989 -2.83548 35.04549 2.16317 3.00256 -24.12689 -6.76826 2.55144 1.96944
0.00489 0.0006 -0.00114 29.55812 -19.5395 -3.22133 46.25643 -1.21369 -7.49393 -10.23221 2.91365 -0.10245 -22.32884 -4.44593 -8.15096 29.54628 119.09255 15.02293 4.45033 -22.87297 6.81264 -0.52918 32.10746 -106.24825 15.69414 -1.25841 30.81223 -0.78358 -5.27291 -19.92581 -6.43337 -4.19823 -2.8367 34.9291 2.11451 2.66412 -24.12853 -6.76503 2.59708 1.99503
0.00527 0.00066 -0.00121 29.55341 -19.49037 -3.2372 46.23444 -1.2327 -7.47475 -10.31905 2.92923 -0.10347 -22.39452 -3.65237 -10.94845 29.74401 127.56415 17.24266 5.79048 -23.00048 6.81883 -0.44977 32.24054 -106.2129 15.70979 -1.26733 30.72906 -0.74414 -5.2307 -19.91721 -6.43399 -4.19818 -2.8394 34.852 2.05124 2.24229 -24.12923 -6.76304 2.64934 2.02538
0.00574 0.00072 -0.00137 29.54413 -19.38004 -3.24612 46.25658 -1.26196 -7.45073 -10.62706 2.93246 -0.10487 -22.50368 -3.20026 -12.54707 29.88998 132.75028 18.64355 6.597 -23.13553 6.81934 -0.34877 32.29894 -106.27069 15.80228 -1.27272 30.56911 -0.7099 -5.18042 -19.91466 -6.43296 -4.20092 -2.84298 34.69302 2.01563 1.97719 -24.13222 -6.758 2.68938 2.04693
0.00652 0.00079 -0.00173 29.51835 -19.07802 -3.23128 46.42213 -1.32395 -7.40802 -11.59401 2.89485 -0.10571 -22.74828 -3.78146 -10.51305 29.88289 128.11084 17.60454 5.80679 -23.28359 6.79976 -0.18486 32.11497 -106.6161 16.13524 -1.26739 30.16794 -0.69884 -5.1539 -19.92951 -6.42317 -4.20732 -2.84621 34.27616 2.06339 2.1818 -24.14058 -6.74461 2.69409 2.04255
0.00739 0.00086 -0.00216 29.48823 -18.72052 -3.20992 46.62813 -1.39523 -7.36106 -12.7693 2.8458 -0.10716 -23.03344 -4.70246 -7.28641 29.82668 120.17748 15.74137 4.48241 -23.43754 6.77637 -0.00043 31.86283 -107.04828 16.53821 -1.25838 29.69699 -0.69542 -5.13151 -19.95028 -6.41109 -4.21519 -2.84952 33.78492 2.13847 2.54232 -24.15134 -6.72836 2.68626 2.02928
0.00818 0.00092 -0.00256 29.46145 -18.40552 -3.19365 46.80288 -1.45908 -7.3185 -13.81284 2.80545 -0.10939 -23.29065 -5.43154 -4.73468 29.80301 113.99365 14.30457 3.44411 -23.59084 6.75397 0.18007 31.66957 -107.4158 16.88295 -1.25115 29.2793 -0.6913 -5.12168 -19.96787 -6.39975 -4.22055 -2.85177 33.35082 2.19797 2.81688 -24.16148 -6.71373 2.68413 2.02047
0.00915 0.001 -0.00298 29.42876 -18.015 -3.16845 47.03334 -1.5367 -7.26538 -15.02153 2.74995 -0.10735 -23.58968 -6.30973 -1.65308 29.73717 106.80275 12.66198 2.23272 -23.74061 6.72771 0.34794 31.36235 -107.88769 17.33609 -1.24372 28.76762 -0.67427 -5.04521 -19.98764 -6.39003 -4.23423 -2.8587 32.81514 2.27045 3.15244 -24.16972 -6.69756 2.68222 2.01003
0.00976 0.00104 -0.00336 29.40773 -17.77127 -3.1604 47.15546 -1.58762 -7.2336 -15.92618 2.72388 -0.11413 -23.80912 -6.96495 0.6308 29.74574 100.9014 11.24896 1.25029 -23.89366 6.71759 0.53345 31.27098 -108.16626 17.58519 -1.23564 28.43837 -0.68587 -5.10733 -20.00415 -6.37651 -4.23109 -2.85599 32.47661 2.32257 3.39955 -24.18241 -6.68407 2.67681 2.00081
0.00942 0.00092 -0.00361 29.41577 -17.92528 -3.1996 46.98617 -1.56425 -7.25806 -16.01775 2.77614 -0.14689 -23.81669 -6.87979 0.28729 29.98925 99.40431 10.65023 1.04239 -24.09822 6.67472 0.88389 31.83993 -107.85735 17.20458 -1.22799 28.60382 -0.78156 -5.59357 -20.01114 -6.3499 -4.17644 -2.82376 32.67426 2.3113 3.35823 -24.20735 -6.67751 2.66459 1.99738
